# xmcd CD database file
#
# Track frame offsets:
#	150
#	12475
#	25671
#	36934
#	48834
#	62165
#	74580
#	88921
#	100486
#	111914
#	122072
#	135275
#	149291
#	162101
#	172812
#	184150
#	198365
#	210633
#
# Disc length: 2993 seconds
#
# Revision: 1
# Processed by: cddbd v1.5.2PL0 Copyright (c) Steve Scherf et al.
# Submitted via: CDex 1.50beta10
#
DISCID=fe0baf12
DTITLE=Sam Taylor - Saxphone 6 波麗唱片
DYEAR=2000
DGENRE=Jazz
TTITLE0=365夜
TTITLE1=夜晚的月台
TTITLE2=白花盛開時
TTITLE3=異國之丘
TTITLE4=水色的華爾滋
TTITLE5=看得到港口的山丘
TTITLE6=玄海布魯斯
TTITLE7=離別的一株杉木
TTITLE8=夜霧的布魯斯
TTITLE9=山上小屋的燈光
TTITLE10=星星的流程
TTITLE11=連絡船之歌
TTITLE12=孤獨的女人
TTITLE13=風聲-傳說
TTITLE14=無根草的歸宿 台北今夜冷清清
TTITLE15=黃昏的街道
TTITLE16=別離的小聚
TTITLE17=港口的旅店
EXTD=YEAR: 2000
EXTT0=
EXTT1=
EXTT2=
EXTT3=
EXTT4=
EXTT5=
EXTT6=
EXTT7=
EXTT8=
EXTT9=
EXTT10=
EXTT11=
EXTT12=
EXTT13=
EXTT14=
EXTT15=
EXTT16=
EXTT17=
PLAYORDER=
